<svg width="50" height="50" viewBox="0 0 50 50" fill="none" xmlns="http://www.w3.org/2000/svg">
<path d="M10.3 32C7.1688 32 4 32.9618 4 34.8V43.2C4 45.0382 7.1688 46 10.3 46C13.4312 46 16.6 45.0382 16.6 43.2V34.8C16.6 32.9618 13.4312 32 10.3 32ZM10.3 33.4C13.4828 33.4 15.2 34.3939 15.2 34.8C15.2 35.2061 13.4828 36.2 10.3 36.2C7.11719 36.2 5.4 35.2061 5.4 34.8C5.4 34.3939 7.11719 33.4 10.3 33.4ZM10.3 44.6C7.11719 44.6 5.4 43.6061 5.4 43.2V42.2201C6.93774 42.9149 8.61357 43.2499 10.3 43.2C11.9864 43.2499 13.6623 42.9149 15.2 42.2201V43.2C15.2 43.6061 13.4828 44.6 10.3 44.6ZM10.3 41.8C7.11719 41.8 5.4 40.8061 5.4 40.4V39.4201C6.93774 40.1149 8.61357 40.4499 10.3 40.4C11.9864 40.4499 13.6623 40.1149 15.2 39.4201V40.4C15.2 40.8061 13.4828 41.8 10.3 41.8ZM10.3 39C7.11719 39 5.4 38.0061 5.4 37.6V36.6201C6.93774 37.3149 8.61357 37.6499 10.3 37.6C11.9864 37.6499 13.6623 37.3149 15.2 36.6201V37.6C15.2 38.0061 13.4828 39 10.3 39Z" fill="#006EF2"/>
<path d="M24.9992 26.4004C21.868 26.4004 18.6992 27.3622 18.6992 29.2004V43.2004C18.6992 45.0386 21.868 46.0004 24.9992 46.0004C28.1304 46.0004 31.2992 45.0386 31.2992 43.2004V29.2004C31.2992 27.3622 28.1304 26.4004 24.9992 26.4004ZM24.9992 27.8004C28.182 27.8004 29.8992 28.7943 29.8992 29.2004C29.8992 29.6064 28.182 30.6004 24.9992 30.6004C21.8164 30.6004 20.0992 29.6064 20.0992 29.2004C20.0992 28.7943 21.8164 27.8004 24.9992 27.8004ZM24.9992 44.6004C21.8164 44.6004 20.0992 43.6064 20.0992 43.2004V42.2205C21.637 42.9153 23.3128 43.2503 24.9992 43.2004C26.6856 43.2503 28.3615 42.9153 29.8992 42.2205V43.2004C29.8992 43.6064 28.182 44.6004 24.9992 44.6004ZM24.9992 41.8004C21.8164 41.8004 20.0992 40.8064 20.0992 40.4004V39.4205C21.637 40.1153 23.3128 40.4503 24.9992 40.4004C26.6856 40.4503 28.3615 40.1153 29.8992 39.4205V40.4004C29.8992 40.8064 28.182 41.8004 24.9992 41.8004ZM24.9992 39.0004C21.8164 39.0004 20.0992 38.0064 20.0992 37.6004V36.6205C21.637 37.3153 23.3128 37.6503 24.9992 37.6004C26.6856 37.6503 28.3615 37.3153 29.8992 36.6205V37.6004C29.8992 38.0064 28.182 39.0004 24.9992 39.0004ZM24.9992 36.2004C21.8164 36.2004 20.0992 35.2064 20.0992 34.8004V33.8205C21.637 34.5153 23.3128 34.8503 24.9992 34.8004C26.6856 34.8503 28.3615 34.5153 29.8992 33.8205V34.8004C29.8992 35.2064 28.182 36.2004 24.9992 36.2004ZM24.9992 33.4004C21.8164 33.4004 20.0992 32.4064 20.0992 32.0004V31.0205C21.637 31.7153 23.3128 32.0503 24.9992 32.0004C26.6856 32.0503 28.3615 31.7153 29.8992 31.0205V32.0004C29.8992 32.4064 28.182 33.4004 24.9992 33.4004Z" fill="#006EF2"/>
<path d="M39.6984 18C36.5672 18 33.3984 18.9618 33.3984 20.8V43.2C33.3984 45.0382 36.5672 46 39.6984 46C42.8296 46 45.9984 45.0382 45.9984 43.2V20.8C45.9984 18.9618 42.8296 18 39.6984 18ZM39.6984 19.4C42.8813 19.4 44.5984 20.3939 44.5984 20.8C44.5984 21.2061 42.8813 22.2 39.6984 22.2C36.5156 22.2 34.7984 21.2061 34.7984 20.8C34.7984 20.3939 36.5156 19.4 39.6984 19.4ZM39.6984 44.6C36.5156 44.6 34.7984 43.6061 34.7984 43.2V42.2201C36.3362 42.9149 38.012 43.2499 39.6984 43.2C41.3849 43.2499 43.0607 42.9149 44.5984 42.2201V43.2C44.5984 43.6061 42.8813 44.6 39.6984 44.6ZM39.6984 41.8C36.5156 41.8 34.7984 40.8061 34.7984 40.4V39.4201C36.3362 40.1149 38.012 40.4499 39.6984 40.4C41.3849 40.4499 43.0607 40.1149 44.5984 39.4201V40.4C44.5984 40.8061 42.8813 41.8 39.6984 41.8ZM39.6984 39C36.5156 39 34.7984 38.0061 34.7984 37.6V36.6201C36.3362 37.3149 38.012 37.6499 39.6984 37.6C41.3849 37.6499 43.0607 37.3149 44.5984 36.6201V37.6C44.5984 38.0061 42.8813 39 39.6984 39ZM39.6984 36.2C36.5156 36.2 34.7984 35.2061 34.7984 34.8V33.8201C36.3362 34.5149 38.012 34.8499 39.6984 34.8C41.3849 34.8499 43.0607 34.5149 44.5984 33.8201V34.8C44.5984 35.2061 42.8813 36.2 39.6984 36.2ZM39.6984 33.4C36.5156 33.4 34.7984 32.4061 34.7984 32V31.0201C36.3362 31.7149 38.012 32.0499 39.6984 32C41.3849 32.0499 43.0607 31.7149 44.5984 31.0201V32C44.5984 32.4061 42.8813 33.4 39.6984 33.4ZM39.6984 30.6C36.5156 30.6 34.7984 29.6061 34.7984 29.2V28.2201C36.3362 28.9149 38.012 29.2499 39.6984 29.2C41.3849 29.2499 43.0607 28.9149 44.5984 28.2201V29.2C44.5984 29.6061 42.8813 30.6 39.6984 30.6ZM39.6984 27.8C36.5156 27.8 34.7984 26.8061 34.7984 26.4V25.4201C36.3362 26.1149 38.012 26.4499 39.6984 26.4C41.3849 26.4499 43.0607 26.1149 44.5984 25.4201V26.4C44.5984 26.8061 42.8813 27.8 39.6984 27.8ZM39.6984 25C36.5156 25 34.7984 24.0061 34.7984 23.6V22.6201C36.3362 23.3149 38.012 23.6499 39.6984 23.6C41.3849 23.6499 43.0607 23.3149 44.5984 22.6201V23.6C44.5984 24.0061 42.8813 25 39.6984 25Z" fill="#006EF2"/>
<path d="M38.2997 4V5.4H43.6099L30.3099 18.7H15.6365L4.23828 28.6729L5.16113 29.7271L16.1629 20.1H30.8896L44.5997 6.38984V11.7H45.9997V4H38.2997Z" fill="#006EF2"/>
</svg>
