<svg width="370" height="8" viewBox="0 0 370 8" fill="none" xmlns="http://www.w3.org/2000/svg">
<path d="M7.28117 7.30631L0 0H7.28117V7.30631Z" fill="#5D9E61"/>
<path d="M7.28125 0L14.5634 7.30631H7.28125V0Z" fill="#F2EDBF"/>
<path d="M20.953 7.30631L13.6719 0H20.953V7.30631Z" fill="#5D9E61"/>
<path d="M20.9512 0L28.2333 7.30631H20.9512V0Z" fill="#F2EDBF"/>
<path d="M34.6239 7.30631L27.3418 0H34.6239V7.30631Z" fill="#5D9E61"/>
<path d="M34.623 0L41.9042 7.30631H34.623V0Z" fill="#F2EDBF"/>
<path d="M48.2939 7.30631L41.0117 0H48.2939V7.30631Z" fill="#5D9E61"/>
<path d="M48.2949 0L55.576 7.30631H48.2949V0Z" fill="#F2EDBF"/>
<path d="M61.9648 7.30631L54.6836 0H61.9648V7.30631Z" fill="#5D9E61"/>
<path d="M61.9648 0L69.247 7.30631H61.9648V0Z" fill="#F2EDBF"/>
<path d="M75.6347 7.30631L68.3535 0H75.6347V7.30631Z" fill="#5D9E61"/>
<path d="M75.6348 0L82.9159 7.30631H75.6348V0Z" fill="#F2EDBF"/>
<path d="M89.3056 7.30631L82.0234 0H89.3056V7.30631Z" fill="#5D9E61"/>
<path d="M89.3066 0L96.5878 7.30631H89.3066V0Z" fill="#F2EDBF"/>
<path d="M102.976 7.30631L95.6953 0H102.976V7.30631Z" fill="#5D9E61"/>
<path d="M102.977 0L110.259 7.30631H102.977V0Z" fill="#F2EDBF"/>
<path d="M116.646 7.30631L109.365 0H116.646V7.30631Z" fill="#5D9E61"/>
<path d="M116.646 0L123.929 7.30631H116.646V0Z" fill="#F2EDBF"/>
<path d="M130.317 7.30631L123.035 0H130.317V7.30631Z" fill="#5D9E61"/>
<path d="M130.318 0L137.599 7.30631H130.318V0Z" fill="#F2EDBF"/>
<path d="M143.989 7.30631L136.707 0H143.989V7.30631Z" fill="#5D9E61"/>
<path d="M143.988 0L151.269 7.30631H143.988V0Z" fill="#F2EDBF"/>
<path d="M157.658 7.30631L150.377 0H157.658V7.30631Z" fill="#5D9E61"/>
<path d="M157.658 0L164.94 7.30631H157.658V0Z" fill="#F2EDBF"/>
<path d="M171.33 7.30631L164.049 0H171.33V7.30631Z" fill="#5D9E61"/>
<path d="M171.33 0L178.611 7.30631H171.33V0Z" fill="#F2EDBF"/>
<path d="M185.001 7.30631L177.719 0H185.001V7.30631Z" fill="#5D9E61"/>
<path d="M185 0L192.281 7.30631H185V0Z" fill="#F2EDBF"/>
<path d="M198.67 7.30631L191.389 0H198.67V7.30631Z" fill="#5D9E61"/>
<path d="M198.67 0L205.952 7.30631H198.67V0Z" fill="#F2EDBF"/>
<path d="M212.342 7.30631L205.061 0H212.342V7.30631Z" fill="#5D9E61"/>
<path d="M212.342 0L219.623 7.30631H212.342V0Z" fill="#F2EDBF"/>
<path d="M226.013 7.30631L218.73 0H226.013V7.30631Z" fill="#5D9E61"/>
<path d="M226.012 0L233.293 7.30631H226.012V0Z" fill="#F2EDBF"/>
<path d="M239.682 7.30631L232.4 0H239.682V7.30631Z" fill="#5D9E61"/>
<path d="M239.682 0L246.964 7.30631H239.682V0Z" fill="#F2EDBF"/>
<path d="M253.353 7.30631L246.072 0H253.353V7.30631Z" fill="#5D9E61"/>
<path d="M253.354 0L260.636 7.30631H253.354V0Z" fill="#F2EDBF"/>
<path d="M267.024 7.30631L259.742 0H267.024V7.30631Z" fill="#5D9E61"/>
<path d="M267.023 0L274.305 7.30631H267.023V0Z" fill="#F2EDBF"/>
<path d="M280.694 7.30631L273.412 0H280.694V7.30631Z" fill="#5D9E61"/>
<path d="M280.695 0L287.976 7.30631H280.695V0Z" fill="#F2EDBF"/>
<path d="M294.365 7.30631L287.084 0H294.365V7.30631Z" fill="#5D9E61"/>
<path d="M294.365 0L301.647 7.30631H294.365V0Z" fill="#F2EDBF"/>
<path d="M308.035 7.30631L300.754 0H308.035V7.30631Z" fill="#5D9E61"/>
<path d="M308.035 0L315.316 7.30631H308.035V0Z" fill="#F2EDBF"/>
<path d="M321.708 7.30631L314.426 0H321.708V7.30631Z" fill="#5D9E61"/>
<path d="M321.707 0L328.988 7.30631H321.707V0Z" fill="#F2EDBF"/>
<path d="M335.377 7.30631L328.096 0H335.377V7.30631Z" fill="#5D9E61"/>
<path d="M335.377 0L342.659 7.30631H335.377V0Z" fill="#F2EDBF"/>
<path d="M349.049 7.30631L341.768 0H349.049V7.30631Z" fill="#5D9E61"/>
<path d="M349.047 0L356.329 7.30631H349.047V0Z" fill="#F2EDBF"/>
<path d="M362.72 7.30631L355.438 0H362.72V7.30631Z" fill="#5D9E61"/>
<path d="M362.719 0L370 7.30631H362.719V0Z" fill="#F2EDBF"/>
</svg>
