<svg width="1180" height="10" viewBox="0 0 1180 10" fill="none" xmlns="http://www.w3.org/2000/svg">
<path d="M9.96558 10L0 0H9.96558V10Z" fill="#5D9E61"/>
<path d="M9.96558 0L19.9325 10H9.96558V0Z" fill="#F2EDBF"/>
<path d="M28.6768 10L18.7112 0H28.6768V10Z" fill="#5D9E61"/>
<path d="M28.6768 0L38.6437 10H28.6768V0Z" fill="#F2EDBF"/>
<path d="M47.3878 10L37.4209 0H47.3878V10Z" fill="#5D9E61"/>
<path d="M47.3879 0L57.3535 10H47.3879V0Z" fill="#F2EDBF"/>
<path d="M66.099 10L56.1321 0H66.099V10Z" fill="#5D9E61"/>
<path d="M66.0991 0L76.0647 10H66.0991V0Z" fill="#F2EDBF"/>
<path d="M84.8088 10L74.8433 0H84.8088V10Z" fill="#5D9E61"/>
<path d="M84.8088 0L94.7758 10H84.8088V0Z" fill="#F2EDBF"/>
<path d="M103.52 10L93.5544 0H103.52V10Z" fill="#5D9E61"/>
<path d="M103.52 0L113.486 10H103.52V0Z" fill="#F2EDBF"/>
<path d="M122.231 10L112.264 0H122.231V10Z" fill="#5D9E61"/>
<path d="M122.231 0L132.197 10H122.231V0Z" fill="#F2EDBF"/>
<path d="M140.941 10L130.975 0H140.941V10Z" fill="#5D9E61"/>
<path d="M140.941 0L150.908 10H140.941V0Z" fill="#F2EDBF"/>
<path d="M159.652 10L149.687 0H159.652V10Z" fill="#5D9E61"/>
<path d="M159.652 0L169.618 10H159.652V0Z" fill="#F2EDBF"/>
<path d="M178.363 10L168.396 0H178.363V10Z" fill="#5D9E61"/>
<path d="M178.363 0L188.329 10H178.363V0Z" fill="#F2EDBF"/>
<path d="M197.073 10L187.107 0H197.073V10Z" fill="#5D9E61"/>
<path d="M197.073 0L207.04 10H197.073V0Z" fill="#F2EDBF"/>
<path d="M215.784 10L205.819 0H215.784V10Z" fill="#5D9E61"/>
<path d="M215.784 0L225.751 10H215.784V0Z" fill="#F2EDBF"/>
<path d="M234.495 10L224.529 0H234.495V10Z" fill="#5D9E61"/>
<path d="M234.495 0L244.461 10H234.495V0Z" fill="#F2EDBF"/>
<path d="M253.207 10L243.24 0H253.207V10Z" fill="#5D9E61"/>
<path d="M253.207 0L263.172 10H253.207V0Z" fill="#F2EDBF"/>
<path d="M271.916 10L261.951 0H271.916V10Z" fill="#5D9E61"/>
<path d="M271.917 0L281.883 10H271.917V0Z" fill="#F2EDBF"/>
<path d="M290.628 10L280.662 0H290.628V10Z" fill="#5D9E61"/>
<path d="M290.627 0L300.593 10H290.627V0Z" fill="#F2EDBF"/>
<path d="M309.339 10L299.372 0H309.339V10Z" fill="#5D9E61"/>
<path d="M309.339 0L319.304 10H309.339V0Z" fill="#F2EDBF"/>
<path d="M328.049 10L318.083 0H328.049V10Z" fill="#5D9E61"/>
<path d="M328.049 0L338.016 10H328.049V0Z" fill="#F2EDBF"/>
<path d="M346.76 10L336.794 0H346.76V10Z" fill="#5D9E61"/>
<path d="M346.76 0L356.727 10H346.76V0Z" fill="#F2EDBF"/>
<path d="M365.471 10L355.504 0H365.471V10Z" fill="#5D9E61"/>
<path d="M365.471 0L375.436 10H365.471V0Z" fill="#F2EDBF"/>
<path d="M384.182 10L374.215 0H384.182V10Z" fill="#5D9E61"/>
<path d="M384.182 0L394.147 10H384.182V0Z" fill="#F2EDBF"/>
<path d="M402.892 10L392.926 0H402.892V10Z" fill="#5D9E61"/>
<path d="M402.892 0L412.859 10H402.892V0Z" fill="#F2EDBF"/>
<path d="M421.603 10L411.637 0H421.603V10Z" fill="#5D9E61"/>
<path d="M421.603 0L431.569 10H421.603V0Z" fill="#F2EDBF"/>
<path d="M440.314 10L430.347 0H440.314V10Z" fill="#5D9E61"/>
<path d="M440.314 0L450.28 10H440.314V0Z" fill="#F2EDBF"/>
<path d="M459.024 10L449.058 0H459.024V10Z" fill="#5D9E61"/>
<path d="M459.024 0L468.991 10H459.024V0Z" fill="#F2EDBF"/>
<path d="M477.735 10L467.77 0H477.735V10Z" fill="#5D9E61"/>
<path d="M477.735 0L487.702 10H477.735V0Z" fill="#F2EDBF"/>
<path d="M496.446 10L486.479 0H496.446V10Z" fill="#5D9E61"/>
<path d="M496.446 0L506.412 10H496.446V0Z" fill="#F2EDBF"/>
<path d="M515.157 10L505.19 0H515.157V10Z" fill="#5D9E61"/>
<path d="M515.157 0L525.123 10H515.157V0Z" fill="#F2EDBF"/>
<path d="M533.867 10L523.902 0H533.867V10Z" fill="#5D9E61"/>
<path d="M533.867 0L543.834 10H533.867V0Z" fill="#F2EDBF"/>
<path d="M552.578 10L542.613 0H552.578V10Z" fill="#5D9E61"/>
<path d="M552.578 0L562.544 10H552.578V0Z" fill="#F2EDBF"/>
<path d="M571.289 10L561.323 0H571.289V10Z" fill="#5D9E61"/>
<path d="M571.29 0L581.255 10H571.29V0Z" fill="#F2EDBF"/>
<path d="M589.999 10L580.034 0H589.999V10Z" fill="#5D9E61"/>
<path d="M589.999 0L599.966 10H589.999V0Z" fill="#F2EDBF"/>
<path d="M608.71 10L598.745 0H608.71V10Z" fill="#5D9E61"/>
<path d="M608.71 0L618.676 10H608.71V0Z" fill="#F2EDBF"/>
<path d="M627.422 10L617.455 0H627.422V10Z" fill="#5D9E61"/>
<path d="M627.422 0L637.387 10H627.422V0Z" fill="#F2EDBF"/>
<path d="M646.131 10L636.166 0H646.131V10Z" fill="#5D9E61"/>
<path d="M646.131 0L656.098 10H646.131V0Z" fill="#F2EDBF"/>
<path d="M664.843 10L654.877 0H664.843V10Z" fill="#5D9E61"/>
<path d="M664.843 0L674.809 10H664.843V0Z" fill="#F2EDBF"/>
<path d="M683.554 10L673.587 0H683.554V10Z" fill="#5D9E61"/>
<path d="M683.554 0L693.519 10H683.554V0Z" fill="#F2EDBF"/>
<path d="M702.265 10L692.298 0H702.265V10Z" fill="#5D9E61"/>
<path d="M702.265 0L712.23 10H702.265V0Z" fill="#F2EDBF"/>
<path d="M720.975 10L711.009 0H720.975V10Z" fill="#5D9E61"/>
<path d="M720.975 0L730.942 10H720.975V0Z" fill="#F2EDBF"/>
<path d="M739.686 10L729.72 0H739.686V10Z" fill="#5D9E61"/>
<path d="M739.686 0L749.651 10H739.686V0Z" fill="#F2EDBF"/>
<path d="M758.397 10L748.43 0H758.397V10Z" fill="#5D9E61"/>
<path d="M758.397 0L768.363 10H758.397V0Z" fill="#F2EDBF"/>
<path d="M777.107 10L767.141 0H777.107V10Z" fill="#5D9E61"/>
<path d="M777.107 0L787.074 10H777.107V0Z" fill="#F2EDBF"/>
<path d="M795.818 10L785.853 0H795.818V10Z" fill="#5D9E61"/>
<path d="M795.818 0L805.785 10H795.818V0Z" fill="#F2EDBF"/>
<path d="M814.529 10L804.562 0H814.529V10Z" fill="#5D9E61"/>
<path d="M814.529 0L824.495 10H814.529V0Z" fill="#F2EDBF"/>
<path d="M833.24 10L823.273 0H833.24V10Z" fill="#5D9E61"/>
<path d="M833.24 0L843.206 10H833.24V0Z" fill="#F2EDBF"/>
<path d="M851.95 10L841.984 0H851.95V10Z" fill="#5D9E61"/>
<path d="M851.95 0L861.917 10H851.95V0Z" fill="#F2EDBF"/>
<path d="M870.661 10L860.696 0H870.661V10Z" fill="#5D9E61"/>
<path d="M870.661 0L880.627 10H870.661V0Z" fill="#F2EDBF"/>
<path d="M889.372 10L879.406 0H889.372V10Z" fill="#5D9E61"/>
<path d="M889.373 0L899.338 10H889.373V0Z" fill="#F2EDBF"/>
<path d="M908.082 10L898.117 0H908.082V10Z" fill="#5D9E61"/>
<path d="M908.082 0L918.049 10H908.082V0Z" fill="#F2EDBF"/>
<path d="M926.793 10L916.828 0H926.793V10Z" fill="#5D9E61"/>
<path d="M926.793 0L936.759 10H926.793V0Z" fill="#F2EDBF"/>
<path d="M945.505 10L935.538 0H945.505V10Z" fill="#5D9E61"/>
<path d="M945.504 0L955.47 10H945.504V0Z" fill="#F2EDBF"/>
<path d="M964.214 10L954.249 0H964.214V10Z" fill="#5D9E61"/>
<path d="M964.214 0L974.181 10H964.214V0Z" fill="#F2EDBF"/>
<path d="M982.926 10L972.96 0H982.926V10Z" fill="#5D9E61"/>
<path d="M982.926 0L992.892 10H982.926V0Z" fill="#F2EDBF"/>
<path d="M1001.64 10L991.67 0H1001.64V10Z" fill="#5D9E61"/>
<path d="M1001.64 0L1011.6 10H1001.64V0Z" fill="#F2EDBF"/>
<path d="M1020.35 10L1010.38 0H1020.35V10Z" fill="#5D9E61"/>
<path d="M1020.35 0L1030.31 10H1020.35V0Z" fill="#F2EDBF"/>
<path d="M1039.06 10L1029.09 0H1039.06V10Z" fill="#5D9E61"/>
<path d="M1039.06 0L1049.02 10H1039.06V0Z" fill="#F2EDBF"/>
<path d="M1057.77 10L1047.8 0H1057.77V10Z" fill="#5D9E61"/>
<path d="M1057.77 0L1067.73 10H1057.77V0Z" fill="#F2EDBF"/>
<path d="M1076.48 10L1066.51 0H1076.48V10Z" fill="#5D9E61"/>
<path d="M1076.48 0L1086.45 10H1076.48V0Z" fill="#F2EDBF"/>
<path d="M1095.19 10L1085.22 0H1095.19V10Z" fill="#5D9E61"/>
<path d="M1095.19 0L1105.16 10H1095.19V0Z" fill="#F2EDBF"/>
<path d="M1113.9 10L1103.94 0H1113.9V10Z" fill="#5D9E61"/>
<path d="M1113.9 0L1123.87 10H1113.9V0Z" fill="#F2EDBF"/>
<path d="M1132.61 10L1122.65 0H1132.61V10Z" fill="#5D9E61"/>
<path d="M1132.61 0L1142.58 10H1132.61V0Z" fill="#F2EDBF"/>
<path d="M1151.32 10L1141.36 0H1151.32V10Z" fill="#5D9E61"/>
<path d="M1151.32 0L1161.29 10H1151.32V0Z" fill="#F2EDBF"/>
<path d="M1170.03 10L1160.07 0H1170.03V10Z" fill="#5D9E61"/>
<path d="M1170.03 0L1180 10H1170.03V0Z" fill="#F2EDBF"/>
</svg>
