<svg id="Layer_1" data-name="Layer 1" xmlns="http://www.w3.org/2000/svg" viewBox="0 0 1835 525"><path d="M553.12,209.32v17.75H510.26c-11.69,0-16.67,5.41-16.67,16.88v78.36h-18.4V241.57c0-22.07,8.23-32.25,30.31-32.25Z" fill="#fff"/><path d="M638.18,209.32c26.84,0,38.09,12.77,38.09,34.2,0,20.78-10.39,32.25-38.31,32.25H578.65v8.88c0,11.47,6.28,19.91,22.08,19.91h69.91v17.75H600.73c-28.57,0-39.82-15.8-39.82-37.23V246.55c0-21.21,11.25-37.23,39.82-37.23Zm-59.53,51.73h58.88c15.15,0,20.78-6.06,20.78-16.45,0-10.82-6.06-17.53-20.35-17.53H600.73c-15.8,0-22.08,8.44-22.08,19.7Z" fill="#fff"/><path d="M765.23,209.32c28.57,0,39.83,16,39.83,37.23v55c0,14.72-4.33,20.78-21.43,20.78H727.35c-26.62,0-37.66-12.77-37.66-33.77,0-20.34,10.17-32,37.88-32h59.52v-9.74c0-11.26-6.28-19.7-22.08-19.7H696.62V209.32Zm21.86,88.31v-26.4H728c-14.93,0-20.34,6.06-20.34,16.23,0,10.61,5.84,17.1,19.91,17.1h52.16C785.14,304.56,787.09,302.39,787.09,297.63Z" fill="#fff"/><path d="M942.93,158.46V273.82c0,32.69-14.71,48.49-42,48.49h-31.6c-30.52,0-49.57-18.4-49.57-56.5s19.05-56.49,49.57-56.49h55.2V158.46ZM924.54,273.17v-46.1H870.86c-21.65,0-32.47,11.91-32.47,39,0,26.84,10.82,38.53,32.47,38.53h24.89C915.88,304.56,924.54,295,924.54,273.17Z" fill="#fff"/><path d="M1159.16,209.32c30.31,0,49.35,18.4,49.35,56.49s-19,56.5-49.35,56.5H1104v45.88h-18.4V257.81c0-32.69,14.5-48.49,42-48.49ZM1104,304.56h53.46c21.86,0,32.69-11.69,32.69-38.75,0-26.83-10.83-38.74-32.69-38.74h-24.89c-20.13,0-28.57,9.53-28.57,31.39Z" fill="#fff"/><path d="M1242.06,158.46V322.31h-18.4V158.46Z" fill="#fff"/><path d="M1335.56,209.32c28.57,0,39.83,16,39.83,37.23v55c0,14.72-4.33,20.78-21.43,20.78h-56.27c-26.63,0-37.67-12.77-37.67-33.77,0-20.34,10.18-32,37.88-32h59.53v-9.74c0-11.26-6.28-19.7-22.08-19.7H1267V209.32Zm21.87,88.31v-26.4h-59.1c-14.93,0-20.34,6.06-20.34,16.23,0,10.61,5.84,17.1,19.91,17.1h52.17C1355.48,304.56,1357.43,302.39,1357.43,297.63Z" fill="#fff"/><path d="M1458.72,209.32c38.75,0,57.58,18.18,57.58,49.57v63.42h-18.4V258.89c0-20.56-11.91-31.82-39.18-31.82h-42.2c-1.74,0-2.6,1.08-2.6,3v92.21h-18.4V224.47c0-11.25,3.9-15.15,13.64-15.15Z" fill="#fff"/><path d="M1611.1,209.32c26.84,0,38.09,12.77,38.09,34.2,0,20.78-10.39,32.25-38.31,32.25h-59.3v8.88c0,11.47,6.27,19.91,22.07,19.91h69.92v17.75h-69.92c-28.57,0-39.82-15.8-39.82-37.23V246.55c0-21.21,11.25-37.23,39.82-37.23Zm-59.52,51.73h58.87c15.15,0,20.78-6.06,20.78-16.45,0-10.82-6.06-17.53-20.35-17.53h-37.23c-15.8,0-22.07,8.44-22.07,19.7Z" fill="#fff"/><path d="M1046.22,208.74V301c0,1.94-.86,3-2.59,3h-22.79c-27.06,0-39-11.09-39.17-31.35,0-.15,0-.31,0-.47V208.74h-18.4v63.42c0,8.93,1.53,16.79,4.61,23.47a37.34,37.34,0,0,0,2.85,5.16c7.07,10.89,19.23,17.83,36.62,20.11h39.4v9.39c0,11.48-6.27,19.91-22.07,19.91h-61.3V368h61.3c28.57,0,39.82-15.8,39.82-37.22V309.8c.09-1,.13-2.07.13-3.23V208.74Z" fill="#fff"/><path d="M1669.11,209.32V182.7h18.39v26.62h33.77v17.75H1687.5v58.66c0,14.93,5.2,19.69,17.75,19.69h15.59v16.89h-19.27c-22.72,0-32.46-9.09-32.46-37.66V227.07h-15.59V209.32Z" fill="#fff"/><path d="M265,114.55A148.78,148.78,0,1,0,413.73,263.33,148.78,148.78,0,0,0,265,114.55Zm35,108.81a26.35,26.35,0,0,1-3.72,14,23.34,23.34,0,0,1-9.9,9.24l-3.19,1.57,1.93,4.25,13,30H284.79l-14.52-33.5H185.89v33.5H174v-44l102.8.28a10.39,10.39,0,0,0,7.93-3.63,12.87,12.87,0,0,0,3.3-8.83v-16a12.72,12.72,0,0,0-3.3-8.72,10.52,10.52,0,0,0-7.93-3.64l-102.8.11V187.61H276.8a21.13,21.13,0,0,1,16.34,7.45,25.71,25.71,0,0,1,6.78,18.09ZM318.66,339a9.62,9.62,0,1,1,9.6-9.66A9.62,9.62,0,0,1,318.66,339Zm0-27a9.44,9.44,0,0,1-9.57-9.56,9.59,9.59,0,1,1,9.57,9.56Zm27.68,27a9.62,9.62,0,1,1,9.56-9.66A9.66,9.66,0,0,1,346.34,339Zm0-27a9.49,9.49,0,0,1-9.57-9.56,9.57,9.57,0,0,1,19.13,0A9.48,9.48,0,0,1,346.34,312Z" fill="#fff"/></svg>